<svg width="32" height="32" viewBox="0 0 32 32" fill="none" xmlns="http://www.w3.org/2000/svg">
<path d="M20.61 10C20.15 10 19.7667 9.84667 19.46 9.54C19.1533 9.23333 19 8.842 19 8.366V1.634C19 1.158 19.156 0.766667 19.468 0.46C19.78 0.153333 20.1667 0 20.628 0H30.388C30.8507 0 31.2347 0.153333 31.54 0.46C31.8453 0.766667 31.9987 1.158 32 1.634V8.366C32 8.84333 31.844 9.23467 31.532 9.54C31.22 9.84667 30.8333 10 30.372 10H20.61ZM1.61 16C1.15 16 0.766667 15.8467 0.46 15.54C0.153333 15.2333 0 14.8533 0 14.4V1.6C0 1.14667 0.156 0.766667 0.468 0.46C0.78 0.153333 1.16667 0 1.628 0H11.388C11.8507 0 12.2347 0.153333 12.54 0.46C12.8453 0.766667 12.9987 1.14667 13 1.6V14.4C13 14.8533 12.844 15.2333 12.532 15.54C12.22 15.8467 11.8333 16 11.372 16H1.61ZM20.61 32C20.15 32 19.7667 31.8467 19.46 31.54C19.1533 31.2333 19 30.8533 19 30.4V17.6C19 17.1467 19.156 16.7667 19.468 16.46C19.78 16.1533 20.1667 16 20.628 16H30.388C30.8507 16 31.2347 16.1533 31.54 16.46C31.8453 16.7667 31.9987 17.1467 32 17.6V30.4C32 30.8533 31.844 31.2333 31.532 31.54C31.22 31.8467 30.8333 32 30.372 32H20.61ZM1.61 32C1.15 32 0.766667 31.8467 0.46 31.54C0.153333 31.2333 0 30.842 0 30.366V23.634C0 23.158 0.156 22.7667 0.468 22.46C0.78 22.1533 1.16667 22 1.628 22H11.388C11.8507 22 12.2347 22.1533 12.54 22.46C12.8453 22.7667 12.9987 23.158 13 23.634V30.366C13 30.8433 12.844 31.2347 12.532 31.54C12.22 31.8467 11.8333 32 11.372 32H1.61Z" fill="#35094B"/>
</svg>
