<svg width="21" height="21" viewBox="0 0 21 21" fill="none" xmlns="http://www.w3.org/2000/svg">
<path d="M10.5 19.6875C5.43375 19.6875 1.3125 15.5662 1.3125 10.5C1.3125 5.43375 5.43375 1.3125 10.5 1.3125C15.5662 1.3125 19.6875 5.43375 19.6875 10.5C19.6875 15.5662 15.5662 19.6875 10.5 19.6875ZM10.5 2.625C6.15562 2.625 2.625 6.15562 2.625 10.5C2.625 14.8444 6.15562 18.375 10.5 18.375C14.8444 18.375 18.375 14.8444 18.375 10.5C18.375 6.15562 14.8444 2.625 10.5 2.625Z" fill="#9973AC"/>
<path d="M10.5 15.0938C10.1325 15.0938 9.84375 14.805 9.84375 14.4375V6.5625C9.84375 6.195 10.1325 5.90625 10.5 5.90625C10.8675 5.90625 11.1562 6.195 11.1562 6.5625V14.4375C11.1562 14.805 10.8675 15.0938 10.5 15.0938Z" fill="#9973AC"/>
<path d="M14.4375 11.1562H6.5625C6.195 11.1562 5.90625 10.8675 5.90625 10.5C5.90625 10.1325 6.195 9.84375 6.5625 9.84375H14.4375C14.805 9.84375 15.0938 10.1325 15.0938 10.5C15.0938 10.8675 14.805 11.1562 14.4375 11.1562Z" fill="#9973AC"/>
</svg>
